# xmcd
#
# Track frame offsets: 
#        150
#        17863
#        35453
#        60428
#        76751
#        106537
#        121322
#        142446
#        164894
#        192713
#        213761
#        229171
#        251370
#        273070
#        292910
#        308032
#        330430
#
# Disc length: 4785 seconds
#
# Revision: 2
# Processed by: cddbd v1.5.2PL0 Copyright (c) Steve Scherf et al.
# Submitted via: ExactAudioCopy v1.3
#
DISCID=e912af11
DTITLE=Various Artist - Akella Presents - vol.37 - Blues-Rock  CD1
DYEAR=2013
DGENRE=Blues-Rock
TTITLE0=Michael Katon - You Can Run But You Can't Hide
TTITLE1=Danny Johnson - Up And Down
TTITLE2=The Blues Mystery - My Friend's Child
TTITLE3=Gugun Power Trio - Captain Morgan
TTITLE4=The Hamsters - Foll For Your Stockings
TTITLE5=Stampede Queen - In It For The Money
TTITLE6=Simon McBride - One More Try
TTITLE7=Livin' Blues Xperience - Voodoo Dancer
TTITLE8=Eric Street Band - All I Wanted
TTITLE9=Dirty Dave Osti - Shakedown
TTITLE10=Matt Joiner Band - Long Gone
TTITLE11=The Hamburg Blues Band - Rockin' Chair
TTITLE12=Bonafide - Loud Band
TTITLE13=Mojo Makers - The Devil
TTITLE14=The Cadillac Three - Turn It On
TTITLE15=The Janeys - Led Balloon
TTITLE16=Toronzo Cannon - John The Conquer Root
EXTD=
EXTT0=
EXTT1=
EXTT2=
EXTT3=
EXTT4=
EXTT5=
EXTT6=
EXTT7=
EXTT8=
EXTT9=
EXTT10=
EXTT11=
EXTT12=
EXTT13=
EXTT14=
EXTT15=
EXTT16=
PLAYORDER=
